<?xml version="1.0" standalone="no"?>
<!DOCTYPE svg PUBLIC "-//W3C//DTD SVG 20010904//EN"
 "http://www.w3.org/TR/2001/REC-SVG-20010904/DTD/svg10.dtd">
<svg version="1.0" xmlns="http://www.w3.org/2000/svg"
 width="960.000000pt" height="960.000000pt" viewBox="0 0 960.000000 960.000000"
 preserveAspectRatio="xMidYMid meet">
<metadata>
Created by potrace 1.14, written by Peter Selinger 2001-2017
</metadata>
<g transform="translate(0.000000,960.000000) scale(0.100000,-0.100000)"
fill="#000000" stroke="none">
<path d="M4440 9589 c-1337 -106 -2546 -744 -3387 -1789 -143 -177 -337 -465
-444 -655 -650 -1162 -788 -2554 -379 -3820 472 -1461 1634 -2623 3092 -3094
754 -243 1553 -296 2338 -155 1613 290 2981 1408 3597 2939 376 933 446 1980
198 2960 -484 1917 -2103 3348 -4060 3590 -283 35 -690 45 -955 24z m830 -413
c721 -86 1395 -333 1990 -729 1078 -719 1779 -1897 1922 -3232 17 -157 17
-673 0 -830 -112 -1039 -554 -1977 -1271 -2696 -711 -712 -1661 -1160 -2691
-1271 -163 -17 -675 -17 -835 0 -1342 144 -2513 843 -3242 1937 -397 595 -644
1289 -725 2030 -17 159 -17 672 0 830 104 939 489 1820 1102 2518 557 634
1376 1123 2240 1337 192 47 456 94 620 109 63 6 133 13 155 15 98 9 608 -3
735 -18z"/>
<path d="M7502 7646 l-183 -52 -1259 -1259 -1260 -1260 -877 877 -878 877
-179 46 c-98 25 -180 44 -182 42 -3 -2 16 -85 42 -185 l47 -180 1013 -1013
1014 -1014 1398 1398 1397 1397 49 178 c27 97 51 183 54 190 6 16 13 18 -196
-42z"/>
</g>
</svg>
